<svg xmlns="http://www.w3.org/2000/svg" viewBox="0 0 297.59 51.56"><defs><style>.cls-1{fill:#e5e4e4;}</style></defs><g id="Layer_2" data-name="Layer 2"><g id="Layer_1-2" data-name="Layer 1"><path class="cls-1" d="M0,1H24.61V8H7.32V17.4H22.88v6.94H7.32V39.85H0Z"/><path class="cls-1" d="M29,7.81A4.46,4.46,0,0,1,27.6,4.55,4.34,4.34,0,0,1,29,1.33,4.46,4.46,0,0,1,32.2,0a4.38,4.38,0,0,1,3.23,1.33,4.36,4.36,0,0,1,1.33,3.22,4.48,4.48,0,0,1-1.33,3.26A4.36,4.36,0,0,1,32.2,9.16,4.44,4.44,0,0,1,29,7.81Zm-.32,4.39h7.1V39.85h-7.1Z"/><path class="cls-1" d="M41.8,12.2h6.67v3.47h.43a8.64,8.64,0,0,1,3.53-3.17,10.6,10.6,0,0,1,4.93-1.17q5,0,7.59,3c1.73,2,2.6,4.79,2.6,8.29V39.85h-7.1V23.53a5.8,5.8,0,0,0-1.36-4.12A4.88,4.88,0,0,0,55.3,18a5.64,5.64,0,0,0-4.64,2.22,8.72,8.72,0,0,0-1.76,5.58v14.1H41.8Z"/><path class="cls-1" d="M80.13,8H69.29V1h29V8H87.45V39.85H80.13Z"/><path class="cls-1" d="M103,38.82a13.63,13.63,0,0,1-5.18-5.23A15.08,15.08,0,0,1,96,26.08a15.24,15.24,0,0,1,1.84-7.35,14.13,14.13,0,0,1,5.1-5.39,13.55,13.55,0,0,1,7.27-2,14.22,14.22,0,0,1,7.37,1.84,12,12,0,0,1,4.69,5,15.73,15.73,0,0,1,1.6,7.1,16.46,16.46,0,0,1-.17,2.38H102.9a7.84,7.84,0,0,0,2.63,5,7.66,7.66,0,0,0,5,1.71,8.09,8.09,0,0,0,4.2-1.06,7.86,7.86,0,0,0,2.79-2.85l5.75,2.82a13.87,13.87,0,0,1-12.85,7.38A14.7,14.7,0,0,1,103,38.82Zm14-16.16a5.55,5.55,0,0,0-1-2.57A6.65,6.65,0,0,0,113.72,18a7,7,0,0,0-3.5-.84,6.66,6.66,0,0,0-4.36,1.49,8.31,8.31,0,0,0-2.63,4Z"/><path class="cls-1" d="M133.75,38.85a13.32,13.32,0,0,1-5.18-5.24A15.3,15.3,0,0,1,126.7,26a15.14,15.14,0,0,1,1.87-7.56,13.56,13.56,0,0,1,5.18-5.23,14.7,14.7,0,0,1,7.48-1.9,15.1,15.1,0,0,1,7.91,2,11.29,11.29,0,0,1,4.78,5.61l-6.51,2.71A6.25,6.25,0,0,0,141.23,18a7,7,0,0,0-5.34,2.22A8.2,8.2,0,0,0,133.8,26a8.29,8.29,0,0,0,2.09,5.91,7,7,0,0,0,5.34,2.23,6.79,6.79,0,0,0,6.5-3.91l6.46,2.82a13.35,13.35,0,0,1-5.1,5.64,16.14,16.14,0,0,1-15.34.14Z"/><path class="cls-1" d="M157.93,1H165v9.81l-.43,4.83H165a8.72,8.72,0,0,1,3.47-3.15,10.53,10.53,0,0,1,4.93-1.19q5,0,7.73,3t2.68,8.32V39.85h-7.1V23.53a5.62,5.62,0,0,0-1.44-4.12A5.08,5.08,0,0,0,171.48,18a5.65,5.65,0,0,0-4.63,2.27A8.63,8.63,0,0,0,165,25.81v14h-7.1Z"/><path class="cls-1" d="M210.79,1h8.4l14.58,38.82H225.7l-3.26-9.27H207.59l-3.26,9.27h-8.07Zm9.27,22.82-3.42-9.75-1.41-4.67h-.43l-1.41,4.67-3.47,9.75Z"/><path class="cls-1" d="M236.76,12.2h6.66v3.36h.44a9.12,9.12,0,0,1,3.3-3,10.05,10.05,0,0,1,5-1.22,12.78,12.78,0,0,1,11.6,7.1A16.26,16.26,0,0,1,265.49,26a16.21,16.21,0,0,1-1.74,7.62,12.8,12.8,0,0,1-11.6,7.08,10.25,10.25,0,0,1-5-1.2,8.31,8.31,0,0,1-3.28-3h-.44l.44,3.91V51.56h-7.1Zm17.89,20.93a7.57,7.57,0,0,0,2.76-2.88,8.5,8.5,0,0,0,1-4.23,8.5,8.5,0,0,0-1-4.23,7.36,7.36,0,0,0-6.5-3.84,7.23,7.23,0,0,0-3.69,1,7.42,7.42,0,0,0-2.77,2.84,8.6,8.6,0,0,0-1,4.23,8.6,8.6,0,0,0,1,4.23,7.6,7.6,0,0,0,2.77,2.88,7.17,7.17,0,0,0,3.69,1A7.29,7.29,0,0,0,254.65,33.13Z"/><path class="cls-1" d="M268.85,12.2h6.67v3.36H276a9.08,9.08,0,0,1,3.31-3,10,10,0,0,1,5-1.22,12.76,12.76,0,0,1,6.8,1.87,13,13,0,0,1,4.8,5.23A16.26,16.26,0,0,1,297.59,26a16.21,16.21,0,0,1-1.74,7.62,13.07,13.07,0,0,1-4.8,5.21,12.85,12.85,0,0,1-6.8,1.87,10.32,10.32,0,0,1-5-1.2,8.45,8.45,0,0,1-3.28-3h-.43l.43,3.91V51.56h-7.1Zm17.89,20.93a7.6,7.6,0,0,0,2.77-2.88,8.6,8.6,0,0,0,1-4.23,8.6,8.6,0,0,0-1-4.23A7.42,7.42,0,0,0,286.74,19,7.33,7.33,0,0,0,283,18a7.26,7.26,0,0,0-3.69,1,7.39,7.39,0,0,0-2.76,2.84,8.5,8.5,0,0,0-1,4.23,8.5,8.5,0,0,0,1,4.23,7.57,7.57,0,0,0,2.76,2.88,7.21,7.21,0,0,0,7.43,0Z"/></g></g></svg>