<?xml version="1.0" encoding="utf-8"?>
<!-- Generator: Adobe Illustrator 26.0.1, SVG Export Plug-In . SVG Version: 6.00 Build 0)  -->
<svg version="1.1" id="Layer_1" xmlns="http://www.w3.org/2000/svg" xmlns:xlink="http://www.w3.org/1999/xlink" x="0px" y="0px"
	 viewBox="0 0 40.9 26" style="enable-background:new 0 0 40.9 26;" xml:space="preserve">
<style type="text/css">
	.st0{fill:#E5E5E5;}
</style>
<path class="st0" d="M37.9,26H3.1C1.4,26,0,24.6,0,22.9v0c0-1.7,1.4-3.1,3.1-3.1h34.8c1.7,0,3.1,1.4,3.1,3.1v0
	C40.9,24.6,39.6,26,37.9,26z M40.9,13L40.9,13c0-1.7-1.4-3.1-3.1-3.1H3.1C1.4,9.9,0,11.3,0,13v0c0,1.7,1.4,3.1,3.1,3.1h34.8
	C39.6,16.1,40.9,14.7,40.9,13z M40.9,3.1L40.9,3.1c0-1.7-1.4-3.1-3.1-3.1L18.7,0c-1.7,0-3.1,1.4-3.1,3.1v0c0,1.7,1.4,3.1,3.1,3.1
	h19.2C39.6,6.1,40.9,4.8,40.9,3.1z"/>
</svg>
